# xmcd
#
# Track frame offsets:
#	150
#	31830
#	52849
#	85564
#	127064
#	151511
#	167350
#	208006
#
# Disc length: 3317 seconds
#
# Revision: 0
# Processed by: cddbd v1.5.2PL0 Copyright (c) Steve Scherf et al.
# Submitted via: audiograbber 1.83.01
#
DISCID=500cf308
DTITLE=Mark Knopfler - Live in Milano 2013
DYEAR=2013
DGENRE=Folk-Rock
TTITLE0=What It Is
TTITLE1=Corned Beef City
TTITLE2=Privateering
TTITLE3=Father and Son&Hill Farmer's Blues
TTITLE4=Back To Tupelo
TTITLE5=I Used To Could
TTITLE6=Romeo and Juliet
TTITLE7=Sultans Of Swing
EXTD=
EXTT0=
EXTT1=
EXTT2=
EXTT3=
EXTT4=
EXTT5=
EXTT6=
EXTT7=
PLAYORDER=
